# File created by Blade
# Date/Time:  Thu Jan 22 16:21:39 2015
# Frame Rate: 120.000 fps
#------------------------------------------------------
:FULLY-SPECIFIED
:DEGREES
1906
root 6.024126 37.115602 6.041873 -4.478148 -5.070105 2.190735
RightUpLeg 12.349358 -7.902839 -5.906230
RightLeg -5.146894 -0.000000 0.000000
RightFoot -11.141597 -12.750699 17.519058
RightToeBase 14.679910 -0.000000 -0.000000
LeftUpLeg 10.884726 4.865423 4.239237
LeftLeg -2.351895 -0.000000 0.000000
LeftFoot -6.717850 8.757956 -20.201223
LeftToeBase 8.630692 -0.000000 -0.000000
Spine 9.093271 -5.645603 -2.007111
RightShoulder -3.817077 -12.429484 -25.343404
RightArm 11.409585 28.566566 43.155731
RightForeArm 10.616085 -0.000000 25.388020
RightHand 6.461549 -0.000000 -15.493896
RightHandThumb1 -24.326973 -0.000000 -32.862282
LeftShoulder -28.009474 35.263602 9.686741
LeftArm 54.219203 -47.161870 -68.112927
LeftForeArm 38.461561 -0.000000 11.734283
LeftHand -16.896690 -0.000000 0.976080
LeftHandThumb1 -26.253704 0.000000 33.147579
Head 3.528806 14.620603 1.960382
1907
root 6.007898 37.115761 6.040294 -4.446708 -5.080880 2.162436
RightUpLeg 12.306049 -7.955217 -5.850765
RightLeg -5.121232 -0.000000 0.000000
RightFoot -11.143707 -12.772459 17.476182
RightToeBase 14.740415 -0.000000 -0.000000
LeftUpLeg 10.861803 4.866607 4.290353
LeftLeg -2.363543 -0.000000 0.000000
LeftFoot -6.705297 8.767199 -20.203751
LeftToeBase 8.597190 -0.000000 -0.000000
Spine 9.050630 -5.644464 -1.964155
RightShoulder -3.790572 -12.456467 -25.357928
RightArm 11.432399 28.601779 43.189589
RightForeArm 10.594922 0.000000 25.475768
RightHand 6.479991 -0.000000 -15.462793
RightHandThumb1 -24.326973 -0.000000 -32.862282
LeftShoulder -28.014440 35.270407 9.669790
LeftArm 54.176303 -47.164820 -68.072855
LeftForeArm 38.455536 -0.000000 11.740163
LeftHand -16.905832 -0.000000 0.979110
LeftHandThumb1 -26.253704 0.000000 33.147579
Head 3.542435 14.626976 1.943083
1908
root 5.992325 37.115824 6.040916 -4.438740 -5.089737 2.140623
RightUpLeg 12.293388 -7.998296 -5.807972
RightLeg -5.105078 -0.000000 0.000000
RightFoot -11.144742 -12.736368 17.450033
RightToeBase 14.772626 -0.000000 -0.000000
LeftUpLeg 10.866192 4.864618 4.335333
LeftLeg -2.377570 -0.000000 0.000000
LeftFoot -6.692852 8.780466 -20.220408
LeftToeBase 8.594569 -0.000000 -0.000000
Spine 9.041510 -5.647670 -1.927501
RightShoulder -3.772364 -12.465764 -25.375976
RightArm 11.462607 28.617966 43.222291
RightForeArm 10.606109 -0.000000 25.560782
RightHand 6.451829 -0.000000 -15.516960
RightHandThumb1 -24.326973 -0.000000 -32.862282
LeftShoulder -28.055973 35.303500 9.604452
LeftArm 54.208058 -47.174705 -68.068950
LeftForeArm 38.413869 0.000000 11.745351
LeftHand -16.899274 -0.000000 1.006220
LeftHandThumb1 -26.253704 0.000000 33.147579
Head 3.539034 14.685450 1.939170
1909
root 5.978009 37.115440 6.043804 -4.444892 -5.107181 2.127803
RightUpLeg 12.295334 -8.052787 -5.783192
RightLeg -5.087796 -0.000000 0.000000
RightFoot -11.137609 -12.656414 17.384131
RightToeBase 14.684425 -0.000000 -0.000000
LeftUpLeg 10.887396 4.869800 4.369756
LeftLeg -2.387251 -0.000000 0.000000
LeftFoot -6.694904 8.793070 -20.242394
LeftToeBase 8.612419 -0.000000 -0.000000
Spine 9.044266 -5.638920 -1.903776
RightShoulder -3.753158 -12.468325 -25.378447
RightArm 11.484272 28.627309 43.229409
RightForeArm 10.606066 -0.000000 25.643610
RightHand 6.479476 0.000000 -15.470048
RightHandThumb1 -24.326973 -0.000000 -32.862282
LeftShoulder -28.066277 35.295551 9.594719
LeftArm 54.168235 -47.184407 -68.045260
LeftForeArm 38.278927 -0.000000 11.772682
LeftHand -16.865749 -0.000000 0.911475
LeftHandThumb1 -26.253704 0.000000 33.147579
Head 3.533679 14.686130 1.922505
1910
root 5.960517 37.115263 6.044154 -4.433319 -5.125450 2.090630
RightUpLeg 12.279160 -8.023319 -5.702140
RightLeg -5.092508 -0.000000 0.000000
RightFoot -11.130502 -12.769035 17.338056
RightToeBase 14.750842 -0.000000 -0.000000
LeftUpLeg 10.889441 4.874909 4.434335
LeftLeg -2.398399 -0.000000 0.000000
LeftFoot -6.683512 8.792429 -20.258191
LeftToeBase 8.583189 -0.000000 -0.000000
Spine 9.031849 -5.601679 -1.850500
RightShoulder -3.741137 -12.428408 -25.372901
RightArm 11.436618 28.594981 43.186506
RightForeArm 10.590120 -0.000000 25.733848
RightHand 6.471282 0.000000 -15.408846
RightHandThumb1 -24.326973 -0.000000 -32.862282
LeftShoulder -28.057257 35.266104 9.605623
LeftArm 54.202673 -47.192744 -68.089617
LeftForeArm 38.313057 -0.000000 11.737475
LeftHand -16.834675 0.000000 0.946963
LeftHandThumb1 -26.253704 0.000000 33.147579
Head 3.528011 14.679056 1.931835
1911
root 5.942979 37.114983 6.046300 -4.428468 -5.135067 2.061078
RightUpLeg 12.272767 -8.065898 -5.649385
RightLeg -5.076331 -0.000000 0.000000
RightFoot -11.121426 -12.728391 17.290939
RightToeBase 14.618586 -0.000000 -0.000000
LeftUpLeg 10.894762 4.895247 4.494426
LeftLeg -2.400923 -0.000000 0.000000
LeftFoot -6.691617 8.776234 -20.310242
LeftToeBase 8.614367 -0.000000 -0.000000
Spine 9.020113 -5.571365 -1.803911
RightShoulder -3.745635 -12.449096 -25.377643
RightArm 11.463130 28.585408 43.199468
RightForeArm 10.643091 -0.000000 25.837532
RightHand 6.432569 -0.000000 -15.420705
RightHandThumb1 -24.326973 -0.000000 -32.862282
LeftShoulder -28.056115 35.272124 9.589147
LeftArm 54.232717 -47.192301 -68.102686
LeftForeArm 38.247249 -0.000000 11.727777
LeftHand -16.933035 -0.000000 1.038183
LeftHandThumb1 -26.253704 0.000000 33.147579
Head 3.533389 14.658371 1.916462
1912
root 5.924898 37.114254 6.048084 -4.422874 -5.136627 2.037574
RightUpLeg 12.268417 -8.097840 -5.594498
RightLeg -5.046246 -0.000000 0.000000
RightFoot -11.162217 -12.752861 17.309519
RightToeBase 14.676902 -0.000000 -0.000000
LeftUpLeg 10.896433 4.858021 4.542132
LeftLeg -2.399944 -0.000000 0.000000
LeftFoot -6.690292 8.797962 -20.299046
LeftToeBase 8.583523 -0.000000 -0.000000
Spine 9.002900 -5.548143 -1.776257
RightShoulder -3.761030 -12.555615 -25.359038
RightArm 11.589613 28.610912 43.235456
RightForeArm 10.604797 -0.000000 25.899361
RightHand 6.408705 0.000000 -15.425846
RightHandThumb1 -24.326973 -0.000000 -32.862282
LeftShoulder -28.038742 35.279059 9.612984
LeftArm 54.249128 -47.198255 -68.157808
LeftForeArm 38.329759 -0.000000 11.743131
LeftHand -16.887410 -0.000000 1.106902
LeftHandThumb1 -26.253704 0.000000 33.147579
Head 3.546169 14.569372 1.883211
1913
root 5.908207 37.114135 6.045459 -4.402062 -5.128852 2.004138
RightUpLeg 12.241992 -8.094701 -5.522110
RightLeg -5.040267 -0.000000 0.000000
RightFoot -11.160368 -12.833939 17.255078
RightToeBase 14.632712 -0.000000 -0.000000
LeftUpLeg 10.864161 4.844079 4.599550
LeftLeg -2.379400 -0.000000 0.000000
LeftFoot -6.703649 8.786888 -20.326482
LeftToeBase 8.608620 -0.000000 -0.000000
Spine 8.985853 -5.536232 -1.720941
RightShoulder -3.771068 -12.549299 -25.354767
RightArm 11.613533 28.585364 43.220489
RightForeArm 10.649917 -0.000000 25.998251
RightHand 6.391688 -0.000000 -15.392737
RightHandThumb1 -24.326973 -0.000000 -32.862282
LeftShoulder -28.018289 35.264565 9.617724
LeftArm 54.234866 -47.209635 -68.183532
LeftForeArm 38.346239 0.000000 11.803857
LeftHand -16.909626 0.000000 0.981412
LeftHandThumb1 -26.253704 0.000000 33.147579
Head 3.532394 14.515268 1.838773
1914
root 5.889968 37.114299 6.046124 -4.398936 -5.129230 1.981596
RightUpLeg 12.232782 -8.134358 -5.474766
RightLeg -5.016600 -0.000000 0.000000
RightFoot -11.171980 -12.818497 17.225705
RightToeBase 14.661257 -0.000000 -0.000000
LeftUpLeg 10.863344 4.817794 4.647585
LeftLeg -2.373469 -0.000000 0.000000
LeftFoot -6.687203 8.808110 -20.318360
LeftToeBase 8.541908 -0.000000 -0.000000
Spine 8.978872 -5.521331 -1.684368
RightShoulder -3.750097 -12.541814 -25.357656
RightArm 11.610594 28.579482 43.211554
RightForeArm 10.595877 -0.000000 26.093041
RightHand 6.437727 0.000000 -15.311572
RightHandThumb1 -24.326973 -0.000000 -32.862282
LeftShoulder -28.021514 35.280319 9.587490
LeftArm 54.277346 -47.236996 -68.210336
LeftForeArm 38.331426 -0.000000 11.797422
LeftHand -16.865692 -0.000000 1.023463
LeftHandThumb1 -26.253704 0.000000 33.147579
Head 3.536321 14.474026 1.796602
